<?xml version="1.0" encoding="utf-8"?>
<!-- Generator: Adobe Illustrator 19.0.0, SVG Export Plug-In . SVG Version: 6.00 Build 0)  -->
<svg version="1.1" id="Camada_1" xmlns="http://www.w3.org/2000/svg" xmlns:xlink="http://www.w3.org/1999/xlink" x="0px" y="0px" width="120px" height="48px"
	 viewBox="-223 402.4 120 48" style="enable-background:new -223 402.4 120 48;" xml:space="preserve">
<style type="text/css">
	.st0{fill:none;stroke:#B0B0B0;}
	.st1{fill:#4C4C4C;}
	.st2{filter:url(#Adobe_OpacityMaskFilter);}
	.st3{fill:#FFFFFF;}
	.st4{mask:url(#mask-2);fill:#4C4C4C;}
</style>
<title>Group 21</title>
<desc>Created with Sketch.</desc>
<g id="header">
	<g id="menu-aberto-copy" transform="translate(-976.000000, -336.000000)">
		<g id="Group-21" transform="translate(976.000000, 336.000000)">
			<path id="Rectangle" class="st0" d="M-218.5,402.9h111c2.2,0,4,1.8,4,4v39c0,2.2-1.8,4-4,4h-111c-2.2,0-4-1.8-4-4v-39
				C-222.5,404.7-220.7,402.9-218.5,402.9z"/>
			<g id="Group-18" transform="translate(41.000000, 11.000000)">
				<g id="Group-12" transform="translate(7.125000, 0.000000)">
					<path id="Fill-1" class="st1" d="M-192.3,423.5h-1.7c-0.1-0.3-0.1-0.5-0.2-0.6c-0.2-0.2-0.5-0.3-0.9-0.3
						c-0.4,0-0.7,0.1-0.9,0.2c-0.1,0.1-0.2,0.3-0.2,0.4c0,0.3,0.3,0.5,1,0.6c0.8,0.2,1.4,0.3,1.7,0.5c0.1,0,0.2,0.1,0.2,0.1
						c0.7,0.3,1.1,0.9,1.1,1.5c0,0.8-0.3,1.5-1,1.8c-0.1,0-0.2,0.1-0.3,0.1c-0.4,0.2-1,0.3-1.5,0.3c-0.9,0-1.6-0.2-2.1-0.5
						c-0.3-0.2-0.6-0.5-0.8-0.8c-0.2-0.3-0.2-0.7-0.2-1.1h1.7c0,0.3,0.1,0.5,0.3,0.7c0.2,0.2,0.6,0.3,1.1,0.3c0.4,0,0.7-0.1,0.9-0.2
						c0.1-0.1,0.2-0.3,0.2-0.4c0-0.3-0.3-0.5-1-0.6c-1-0.2-1.7-0.4-1.9-0.5c-0.7-0.3-1-0.8-1-1.6c0-0.6,0.2-1.1,0.5-1.5
						c0.5-0.5,1.1-0.7,2.1-0.7c0.7,0,1.3,0.1,1.8,0.3c0,0,0.1,0,0.1,0.1c0.3,0.2,0.6,0.4,0.7,0.7
						C-192.4,422.7-192.3,423.1-192.3,423.5"/>
					<polyline id="Fill-5" class="st1" points="-202.2,411.3 -197.5,419.3 -205,419.3 -209.5,411.7 -212.9,405.9 -209.5,403.8 
						-207.3,402.4 -202.2,411.3 					"/>
					<path id="Fill-6" class="st1" d="M-200.3,425.2v-0.7c-0.2-0.9-0.9-1.5-1.8-1.5c0,0,0,0,0,0c-1,0-1.9,0.9-1.9,1.9
						c0,1,0.8,1.9,1.9,1.9c0,0,0,0,0,0C-201.2,426.8-200.5,426.1-200.3,425.2z M-198.8,424.9v3.3h-1.6v-0.4
						c-0.5,0.4-1.2,0.6-1.8,0.6c0,0,0,0,0,0c-1.9,0-3.4-1.6-3.4-3.5c0-1.9,1.5-3.5,3.4-3.5c0,0,0,0,0,0c0.7,0,1.3,0.2,1.8,0.6v-0.4
						h1.6V424.9z"/>
					<path id="Fill-7" class="st1" d="M-207.6,425.2v-0.7c-0.2-0.9-0.9-1.5-1.8-1.5c0,0,0,0,0,0c-1,0-1.9,0.9-1.9,1.9
						c0,1,0.8,1.9,1.9,1.9c0,0,0,0,0,0C-208.6,426.8-207.8,426.1-207.6,425.2z M-206.1,424.9v3.3h-1.6v-0.4
						c-0.5,0.4-1.2,0.6-1.8,0.6c0,0,0,0,0,0c-1.9,0-3.4-1.6-3.4-3.5c0-1.9,1.5-3.5,3.4-3.5c0,0,0,0,0,0c0.7,0,1.3,0.2,1.8,0.6v-2.6
						h1.6V424.9z"/>
					<polyline id="Fill-8" class="st1" points="-209.5,416.2 -207.6,419.3 -215.2,419.3 -219.4,412.2 -219.5,411.9 -219.4,411.8 
						-214,408.4 -209.5,416.2 					"/>
					<polygon id="Fill-9" class="st1" points="-215.2,428.2 -213.5,428.2 -213.5,421.4 -215.2,421.4 					"/>
					<polygon id="Fill-10" class="st1" points="-215.2,420.9 -213.5,420.9 -213.5,419.4 -215.2,419.4 					"/>
					<path id="Fill-11" class="st1" d="M-217.5,425.2v-0.7c-0.2-0.9-0.9-1.5-1.8-1.5c0,0,0,0,0,0c-1,0-1.9,0.9-1.9,1.9
						c0,1,0.8,1.9,1.9,1.9c0,0,0,0,0,0C-218.4,426.8-217.7,426.1-217.5,425.2z M-215.9,424.9v3.3h-1.6v-0.4
						c-0.5,0.4-1.2,0.6-1.8,0.6c0,0,0,0,0,0c-1.9,0-3.4-1.6-3.4-3.5c0-1.9,1.5-3.5,3.4-3.5c0,0,0,0,0,0c0.7,0,1.3,0.2,1.8,0.6v-2.6
						h1.6V424.9z"/>
				</g>
				<polyline id="Fill-13" class="st1" points="-212.2,416.7 -210.7,419.3 -218.2,419.3 -219.1,417.9 -213.5,414.5 -212.2,416.7 
									"/>
				<g id="Group-17" transform="translate(0.000000, 18.687500)">
					<g id="Clip-16">
					</g>
					<defs>
						<filter id="Adobe_OpacityMaskFilter" filterUnits="userSpaceOnUse" x="-223" y="402.7" width="6.8" height="7">
							<feColorMatrix  type="matrix" values="1 0 0 0 0  0 1 0 0 0  0 0 1 0 0  0 0 0 1 0"/>
						</filter>
					</defs>
					<mask maskUnits="userSpaceOnUse" x="-223" y="402.7" width="6.8" height="7" id="mask-2">
						<g class="st2">
							<polygon id="path-1" class="st3" points="-223,402.7 -216.2,402.7 -216.2,409.7 -223,409.7 							"/>
						</g>
					</mask>
					<path id="Fill-15" class="st4" d="M-217.8,406.6v-0.7c-0.2-0.9-0.9-1.5-1.8-1.5c0,0,0,0,0,0c-1,0-1.8,0.9-1.8,1.9
						c0,1,0.8,1.9,1.8,1.9c0,0,0,0,0,0C-218.7,408.1-217.9,407.4-217.8,406.6z M-216.2,406.2v3.3h-1.6v-0.4
						c-0.5,0.4-1.2,0.6-1.8,0.6c0,0,0,0,0,0c-1.9,0-3.4-1.6-3.4-3.5c0-1.9,1.5-3.5,3.4-3.5c0,0,0,0,0,0c0.7,0,1.3,0.2,1.8,0.6v-0.4
						h1.6V406.2z"/>
				</g>
			</g>
		</g>
	</g>
</g>
</svg>
