<?xml version="1.0" encoding="UTF-8"?>
<svg width="120px" height="48px" viewBox="0 0 120 48" version="1.1" xmlns="http://www.w3.org/2000/svg" xmlns:xlink="http://www.w3.org/1999/xlink">
    <!-- Generator: Sketch 51.3 (57544) - http://www.bohemiancoding.com/sketch -->
    <title>Group 27</title>
    <desc>Created with Sketch.</desc>
    <defs>
        <polygon id="path-1" points="0 0.0377505556 34.9042167 0.0377505556 34.9042167 25.9747044 0 25.9747044"></polygon>
    </defs>
    <g id="header" stroke="none" stroke-width="1" fill="none" fill-rule="evenodd">
        <g id="menu-aberto-copy" transform="translate(-1112.000000, -448.000000)">
            <g id="Group-27" transform="translate(1112.000000, 448.000000)">
                <rect id="Rectangle" stroke="#B0B0B0" fill-rule="nonzero" x="0.5" y="0.5" width="119" height="47" rx="4"></rect>
                <g id="Group-15" transform="translate(43.000000, 11.000000)">
                    <mask id="mask-2" fill="white">
                        <use xlink:href="#path-1"></use>
                    </mask>
                    <g id="Clip-2"></g>
                    <path d="M34.6935604,3.25933111 C34.6935604,3.25933111 33.6927281,2.49182556 30.4512396,1.312675 C27.607125,0.275903333 25.4343542,0.0377505556 25.4343542,0.0377505556 L25.4452625,6.18632444 C25.4452625,8.78503889 22.4801938,11.5446644 17.4165833,11.5446644 L17.2717052,11.5446644 C12.2085906,11.5446644 9.24465938,8.78503889 9.24465938,6.18632444 L9.25442292,0.0377505556 C9.25442292,0.0377505556 7.08393583,0.275744444 4.23851677,1.312675 C0.997191563,2.49182556 -0.00364591646,3.25933111 -0.00364591646,3.25933111 C0.236633177,8.19054167 7.97081979,12.2533161 17.3431708,12.2554106 L17.3452854,12.2554106 C26.718125,12.2533161 34.4544229,8.19054167 34.6935604,3.25933111" id="Fill-1" fill="#4C4C4C" mask="url(#mask-2)"></path>
                    <path d="M34.6979573,17.06666 C34.6979573,17.06666 33.697125,17.831905 30.4556292,19.0120269 C27.6092396,20.0489633 25.438751,20.2859865 25.438751,20.2859865 L25.4496594,14.13854 C25.4496594,11.5403094 22.4845906,8.78165167 17.4209802,8.78165167 L17.3496823,8.77955722 L17.3474,8.77955722 L17.2772396,8.78165167 C12.2131479,8.78165167 9.24921667,11.5403094 9.24921667,14.13854 L9.260125,20.2859865 C9.260125,20.2859865 7.08849385,20.0489633 4.2432374,19.0120269 C1.00272594,17.831905 -0.00022731224,17.06666 -0.00022731224,17.06666 C0.240051802,12.1357744 7.97635417,8.07315889 17.3498427,8.06993778 C26.7225146,8.07315889 34.4588198,12.1357744 34.6979573,17.06666" id="Fill-3" fill="#4C4C4C" mask="url(#mask-2)"></path>
                    <path d="M1.685145,25.9614829 C0.895121354,25.9614829 0.880796146,25.3660237 0.880796146,25.1356098 L0.880796146,24.0509483 C0.880796146,23.9835491 0.876400729,23.8966404 1.01705188,23.8966404 L1.42402823,23.8966404 C1.55784271,23.8966404 1.55035417,23.9880644 1.55035417,24.0509483 L1.55035417,25.1356098 C1.55035417,25.213812 1.56354042,25.4205215 1.85102823,25.4205215 L2.53572594,25.4205215 C2.81784271,25.4205215 2.83428396,25.213812 2.83428396,25.1356098 L2.83428396,24.0509483 C2.83428396,23.9879019 2.82533052,23.8966404 2.95833052,23.8966404 L3.37084198,23.8966404 C3.5189824,23.8966404 3.50579615,23.9880644 3.50579615,24.0509483 L3.50579615,25.1356098 C3.50579615,25.3661835 3.49033052,25.9614829 2.69933052,25.9614829" id="Fill-4" fill="#4C4C4C" mask="url(#mask-2)"></path>
                    <path d="M5.46986563,25.8289453 C5.19116792,25.457285 4.79281906,24.9900105 4.38681906,24.4941963 L4.38681906,25.8158835 C4.38681906,25.8745746 4.401145,25.9614829 4.26179542,25.9614829 L3.88102896,25.9614829 C3.74379615,25.9614829 3.75926104,25.8745746 3.75926104,25.8158835 L3.75926104,24.0485296 C3.75926104,23.9877423 3.75372594,23.8963183 3.88102896,23.8963183 L4.62384198,23.8963183 C4.83335417,23.8963183 5.13305188,24.31377 5.32840073,24.5919101 C5.48093583,24.8007161 5.75963281,25.1178756 5.94733125,25.3571552 L5.94733125,24.0485296 C5.94733125,23.9877423 5.93951677,23.8963183 6.07788927,23.8963183 L6.49153969,23.8963183 C6.62323813,23.8963183 6.61558625,23.9877423 6.61558625,24.0485296 L6.61558625,25.9614829 L5.85307479,25.9614829 C5.68947021,25.9614829 5.61914427,25.972448 5.46986563,25.8289453" id="Fill-5" fill="#4C4C4C" mask="url(#mask-2)"></path>
                    <path d="M8.61042292,25.4181026 C8.945125,25.4181026 8.91988854,25.1007828 8.91988854,24.9551835 C8.91988854,24.4682382 8.78151458,24.4484045 8.56093438,24.4484045 L7.51077396,24.4484045 L7.51077396,25.4179428 L8.61042292,25.4179428 L8.61042292,25.4181026 Z M6.86791219,25.9614829 L6.86791219,23.8987371 L8.7082625,23.8987371 C8.8202625,23.8987371 9.5762625,23.8835791 9.5762625,24.6702719 C9.5762625,25.4724434 9.66286563,25.9614829 8.72356042,25.9614829 L7.73168229,25.9614829 L7.51760625,25.5312942 L7.51760625,25.9614829 L6.86791219,25.9614829 Z" id="Fill-6" fill="#4C4C4C" mask="url(#mask-2)"></path>
                    <path d="M10.296125,23.9116359 L11.9925604,23.9116359 C12.1353313,23.9116359 12.1166063,24.004994 12.1166063,24.1768771 C12.1166063,24.3376315 12.1385833,24.4290554 11.9925604,24.4290554 L10.6516594,24.4290554 C10.6164917,24.4290554 10.493751,24.4116412 10.493751,24.5356352 C10.493751,24.6617258 10.4706365,24.7117108 10.6046063,24.7117108 L11.7897281,24.7117108 L11.9806823,25.0877214 C12.008026,25.139803 12.004774,25.1854352 11.9005906,25.1854352 L10.6736365,25.1854352 L10.4838198,24.8181281 L10.4838198,25.3594116 C10.4838198,25.4855023 10.5967969,25.461638 10.6296823,25.461638 L12.0221938,25.461638 C12.1605604,25.461638 12.1485146,25.5570925 12.1485146,25.7138196 C12.1485146,25.8811867 12.1605604,25.9747044 12.0221938,25.9747044 L10.2596594,25.9747044 C10.1126594,25.9747044 9.82630833,25.9290751 9.82630833,25.4746998 L9.82630833,24.3376315 C9.82630833,24.2183153 9.88881979,23.9116359 10.296125,23.9116359" id="Fill-7" fill="#4C4C4C" mask="url(#mask-2)"></path>
                    <path d="M14.0521938,24.4442113 L13.2258656,24.4442113 C13.0874917,24.4442113 13.0941708,24.4898434 13.0941708,24.5312824 L13.0941708,24.9006832 L13.944751,24.9006832 C14.3572625,24.9006832 14.3572625,24.7984569 14.3572625,24.6920397 C14.3570948,24.4792008 14.3396823,24.4442113 14.0521938,24.4442113 M12.574049,23.8985746 L14.4297052,23.8985746 C14.678774,23.8985746 15.0409802,23.8963183 15.0409802,24.5617558 C15.0409802,24.9964599 14.9477052,25.0182277 14.7477969,25.1528651 C15.0824917,25.2094592 15.0375604,25.6331983 15.0375604,25.8528069 C15.0375604,25.963742 14.997026,25.9614829 14.9639802,25.9614829 L14.419774,25.9614829 C14.3054917,25.9614829 14.3330031,25.7831507 14.3330031,25.6896329 C14.3330031,25.4376139 14.1904,25.4484165 14.1344,25.4484165 L13.3333083,25.4484165 C13.2564688,25.3157163 13.1073542,25.0201618 13.1073542,25.0201618 L13.1073542,25.8765113 L13.0052854,25.9613231 L12.4576594,25.9613231 L12.4027969,25.8937636 L12.4027969,24.0765843 C12.4029573,23.9487221 12.4939573,23.8985746 12.574049,23.8985746" id="Fill-8" fill="#4C4C4C" mask="url(#mask-2)"></path>
                    <path d="M18.0169573,24.483394 L17.6723313,25.1028794 L17.7042396,25.1335161 L18.3428656,25.1335161 L18.374774,25.1028794 L18.049026,24.4812974 L18.0169573,24.483394 M18.2362396,23.9116359 C18.3724917,23.9116359 18.5051708,23.9725836 18.6484229,24.248627 C18.7447969,24.4464704 19.418751,25.6528694 19.5611938,25.905051 L19.5611938,25.9745446 L18.8589115,25.9745446 L18.6568885,25.6114306 L17.8027281,25.6114306 L17.6182854,25.1962374 C17.5657052,25.2810494 17.2835833,25.811368 17.187049,25.9743821 L16.4826594,25.9743821 L16.4826594,25.9289126 C16.6264,25.6614156 17.6073771,23.9114734 17.6073771,23.9114734" id="Fill-9" fill="#4C4C4C" mask="url(#mask-2)"></path>
                    <path d="M21.486026,24.4442113 L20.6587281,24.4442113 C20.5205146,24.4442113 20.5271938,24.4898434 20.5271938,24.5312824 L20.5271938,24.9006832 L21.3785906,24.9006832 C21.7889802,24.9006832 21.7889802,24.7984569 21.7889802,24.6920397 C21.7889802,24.4792008 21.7736823,24.4442113 21.486026,24.4442113 M20.0069115,23.8985746 L21.8635375,23.8985746 C22.1114688,23.8985746 22.4736823,23.8963183 22.4736823,24.5617558 C22.4736823,24.9964599 22.3815375,25.0182277 22.1817969,25.1528651 C22.5176365,25.2094592 22.4714,25.6331983 22.4714,25.8528069 C22.4714,25.963742 22.4297281,25.9614829 22.3966823,25.9614829 L21.8524687,25.9614829 C21.7385146,25.9614829 21.7668427,25.7831507 21.7668427,25.6896329 C21.7668427,25.4376139 21.6242396,25.4484165 21.5693771,25.4484165 L20.7663313,25.4484165 C20.6894917,25.3157163 20.540049,25.0201618 20.540049,25.0201618 L20.540049,25.8765113 L20.4392854,25.9613231 L19.8906823,25.9613231 L19.8358198,25.8937636 L19.8358198,24.0765843 C19.8356594,23.9487221 19.9277969,23.8985746 20.0069115,23.8985746" id="Fill-10" fill="#4C4C4C" mask="url(#mask-2)"></path>
                    <path d="M24.0955604,25.9614829 C23.9573542,25.7051109 23.5733313,24.9964599 23.3141708,24.5312824 L23.3141708,25.8181399 C23.3141708,25.8724779 23.323125,25.9614829 23.1893083,25.9614829 L22.8140792,25.9614829 C22.6735833,25.9614829 22.6844917,25.8724779 22.6844917,25.8181399 L22.6844917,24.0507858 C22.6844917,23.9877423 22.6755375,23.8985746 22.8140792,23.8985746 L23.4636135,23.8985746 C23.5601479,23.8985746 23.6983542,23.8769693 23.8521938,24.1833266 C23.9684229,24.4290554 24.2140792,24.9398659 24.3854917,25.2094592 C24.556751,24.9398659 24.8090719,24.4290554 24.9253083,24.1833266 C25.0768656,23.8769693 25.2106823,23.8985746 25.3204,23.8985746 L25.9678198,23.8985746 C26.0995146,23.8985746 26.0842167,23.9877423 26.0842167,24.0507858 L26.0842167,25.8181399 C26.0842167,25.8724779 26.1039115,25.9614829 25.9678198,25.9614829 L25.5881938,25.9614829 C25.4498198,25.9614829 25.4608885,25.8724779 25.4608885,25.8181399 L25.4608885,24.5312824 C25.1973313,24.9964599 24.8177052,25.7049511 24.6729802,25.9614829" id="Fill-11" fill="#4C4C4C" mask="url(#mask-2)"></path>
                    <path d="M28.1557281,25.4353575 C28.4673083,25.4353575 28.4564,25.1159386 28.4564,24.9029423 C28.4564,24.7094517 28.5024688,24.4093843 28.0963083,24.4093843 L27.4073771,24.4093843 C27.0034917,24.4093843 27.0516823,24.7094517 27.0516823,24.9029423 C27.0516823,25.1161011 27.0319802,25.4353575 27.3435677,25.4353575 L28.1557281,25.4353575 Z M26.9178656,25.9658386 C26.3033313,25.9658386 26.3297052,25.3137823 26.3297052,24.8877843 C26.3297052,24.5008082 26.285751,23.8943842 27.0560719,23.8879348 L28.4256292,23.8879348 C29.1982396,23.8879348 29.1476135,24.5032277 29.1476135,24.8877843 C29.1476135,25.3137823 29.1785375,25.9658386 28.5529344,25.9658386 L26.9178656,25.9658386 Z" id="Fill-12" fill="#4C4C4C" mask="url(#mask-2)"></path>
                    <path d="M30.1769344,25.9614829 C29.389026,25.9614829 29.3738885,25.3660237 29.3738885,25.1356098 L29.3738885,24.0509483 C29.3738885,23.9835491 29.3694917,23.8966404 29.5099802,23.8966404 L29.9182625,23.8966404 C30.0520719,23.8966404 30.043125,23.9880644 30.043125,24.0509483 L30.043125,25.1356098 C30.043125,25.213812 30.0564688,25.4205215 30.3437969,25.4205215 L31.0286594,25.4205215 C31.3115906,25.4205215 31.3270563,25.213812 31.3270563,25.1356098 L31.3270563,24.0509483 C31.3270563,23.9879019 31.3205448,23.8966404 31.4520719,23.8966404 L31.8624688,23.8966404 C32.011751,23.8966404 31.9985604,23.9880644 31.9985604,24.0509483 L31.9985604,25.1356098 C31.9985604,25.3661835 31.9853771,25.9614829 31.1909573,25.9614829" id="Fill-13" fill="#4C4C4C" mask="url(#mask-2)"></path>
                    <path d="M33.9144458,24.4442113 L33.0892625,24.4442113 C32.951049,24.4442113 32.9575677,24.4898434 32.9575677,24.5312824 L32.9575677,24.9006832 L33.8089573,24.9006832 C34.2195146,24.9006832 34.2195146,24.7984569 34.2195146,24.6920397 C34.219675,24.4792008 34.2021021,24.4442113 33.9144458,24.4442113 M32.4374458,23.8985746 L34.2942396,23.8985746 C34.5421708,23.8985746 34.9042167,23.8963183 34.9042167,24.5617558 C34.9042167,24.9964599 34.8099573,25.0182277 34.6103771,25.1528651 C34.9462167,25.2094592 34.9022625,25.6331983 34.9022625,25.8528069 C34.9022625,25.963742 34.8604229,25.9614829 34.8273771,25.9614829 L34.2833313,25.9614829 C34.1713313,25.9614829 34.1977052,25.7831507 34.1977052,25.6896329 C34.1977052,25.4376139 34.0528198,25.4484165 33.9979573,25.4484165 L33.1968656,25.4484165 C33.1201938,25.3157163 32.970751,25.0201618 32.970751,25.0201618 L32.970751,25.8765113 L32.8677052,25.9613231 L32.321049,25.9613231 L32.2661938,25.8937636 L32.2661938,24.0765843 C32.2661938,23.9487221 32.3584917,23.8985746 32.4374458,23.8985746" id="Fill-14" fill="#4C4C4C" mask="url(#mask-2)"></path>
                </g>
            </g>
        </g>
    </g>
</svg>