<svg xmlns="http://www.w3.org/2000/svg" xmlns:xlink="http://www.w3.org/1999/xlink" width="119" height="47" viewBox="0 0 119 47">
  <defs>
    <clipPath id="clip-brand-oxer-novo">
      <rect width="119" height="47"/>
    </clipPath>
  </defs>
  <g id="brand-oxer-novo" clip-path="url(#clip-brand-oxer-novo)">
    <g id="Grupo_120" data-name="Grupo 120">
      <rect id="Rectangle" width="119" height="47" rx="4" fill="none" stroke="#b0b0b0" stroke-width="1"/>
      <g id="Grupo_119" data-name="Grupo 119" transform="translate(-304.999 -1586.56)">
        <path id="Caminho_275" data-name="Caminho 275" d="M224.474,183.092a6.967,6.967,0,1,1-6.848-6.95,6.96,6.96,0,0,1,6.848,6.95m-6.954-4.048a3.771,3.771,0,0,0-.709.063,3.963,3.963,0,0,0-2.683,1.76c-.147.22-.142.233.091.378l2.282,1.417a1.927,1.927,0,0,1,.256.172.332.332,0,0,1,0,.535,1.334,1.334,0,0,1-.178.122l-2.309,1.432c-.281.174-.288.2-.1.472.012.017.023.034.036.05a3.962,3.962,0,0,0,4,1.645,3.87,3.87,0,0,0,2.631-1.685c.208-.3.2-.3-.1-.489q-1.116-.69-2.231-1.382a1.615,1.615,0,0,1-.275-.2.319.319,0,0,1,.012-.49,1.776,1.776,0,0,1,.253-.175l2.31-1.431c.226-.14.233-.154.078-.379a4.023,4.023,0,0,0-3.36-1.817" transform="translate(125.46 1427.42)" fill="#4c4c4c"/>
        <path id="Caminho_276" data-name="Caminho 276" d="M456.017,194.95H452.9c-.082,0-.165,0-.247,0-.168.009-.217.066-.187.239a2.427,2.427,0,0,0,1.477,1.92,3.025,3.025,0,0,0,1.72.228,3.9,3.9,0,0,0,.691-.154,2.609,2.609,0,0,0,1.155-.8,1.715,1.715,0,0,1,.186-.206.3.3,0,0,1,.372-.038c.062.036.122.076.181.118l.78.556.05.036c.268.2.3.362.1.624a3.954,3.954,0,0,1-.491.554,4.727,4.727,0,0,1-2.443,1.173,6.142,6.142,0,0,1-1.663.049,4.6,4.6,0,0,1-2.82-1.266,4.463,4.463,0,0,1-1.3-2.411,5.479,5.479,0,0,1,.036-2.329,4.628,4.628,0,0,1,3.632-3.472,5.072,5.072,0,0,1,1.2-.112,4.682,4.682,0,0,1,2.678.9,4.03,4.03,0,0,1,1.411,2.054,5.849,5.849,0,0,1,.243,1.982c-.01.314-.046.346-.37.346q-1.637,0-3.275,0m-.991-1.527h2.066c.092,0,.185,0,.277-.01a.115.115,0,0,0,.105-.129.587.587,0,0,0-.021-.121,2.23,2.23,0,0,0-1.637-1.606,2.752,2.752,0,0,0-1.669.068,2.411,2.411,0,0,0-1.5,1.418c-.14.348-.07.382.248.38.709,0,1.418,0,2.127,0" transform="translate(-76.408 1416.039)" fill="#4c4c4c"/>
        <path id="Caminho_277" data-name="Caminho 277" d="M517.643,195.464q0-1.991,0-3.982a3.033,3.033,0,0,1,.007-.308.341.341,0,0,1,.31-.331,1.518,1.518,0,0,1,.246-.012c1.605,0,3.211,0,4.816,0a2.861,2.861,0,0,1,1.707.542,2.715,2.715,0,0,1,1.1,1.8,3.419,3.419,0,0,1-.6,2.577,1.838,1.838,0,0,1-.214.263c-.193.2-.179.214-.019.4a4.943,4.943,0,0,1,.834,1.469,7.644,7.644,0,0,1,.377,1.4,3.074,3.074,0,0,1,.058.427c.007.233-.1.356-.326.36-.473.009-.947.005-1.42,0a.32.32,0,0,1-.328-.272c-.025-.1-.041-.2-.061-.3a6.044,6.044,0,0,0-.543-1.666,2.347,2.347,0,0,0-.524-.681,1.339,1.339,0,0,0-.9-.355c-.7,0-1.4,0-2.1,0a1.188,1.188,0,0,0-.154.009.145.145,0,0,0-.137.142c-.008.092-.01.185-.01.277q0,1.111,0,2.223a2.321,2.321,0,0,1-.012.308.34.34,0,0,1-.311.33,1.329,1.329,0,0,1-.245.024c-.329,0-.659,0-.988,0a1.517,1.517,0,0,1-.305-.038.306.306,0,0,1-.249-.28,2.5,2.5,0,0,1-.01-.308q0-2.006,0-4.013m3.716-2.819v-.006h-1.14c-.072,0-.144,0-.216,0-.188.012-.225.051-.237.246,0,.031,0,.062,0,.092,0,.6,0,1.191,0,1.787,0,.3.023.313.315.319h2.249c.072,0,.144,0,.216,0a1.26,1.26,0,0,0,1.212-1.39,1.051,1.051,0,0,0-.29-.663,1.147,1.147,0,0,0-.845-.383c-.421,0-.842,0-1.263,0" transform="translate(-133.046 1415.055)" fill="#4c4c4c"/>
        <path id="Caminho_278" data-name="Caminho 278" d="M335.455,199.3a4.24,4.24,0,0,1-1.888-.394,4.663,4.663,0,0,1-2.751-3.353,4.063,4.063,0,0,1-.12-.978,4.872,4.872,0,0,1,6.7-4.528,4.568,4.568,0,0,1,2.879,3.348,4.68,4.68,0,0,1-1.143,4.386,4.589,4.589,0,0,1-2.693,1.456,6.119,6.119,0,0,1-.984.063m2.782-4.746a3.026,3.026,0,0,0-.13-1.022,2.615,2.615,0,0,0-3.125-1.811,2.651,2.651,0,0,0-1.919,1.639,2.99,2.99,0,0,0-.162,1.815,2.718,2.718,0,0,0,.779,1.446,2.613,2.613,0,0,0,2.308.7,2.541,2.541,0,0,0,2.078-1.724,2.619,2.619,0,0,0,.171-1.042" transform="translate(24.317 1416.016)" fill="#4c4c4c"/>
        <path id="Caminho_279" data-name="Caminho 279" d="M391.944,190.816c.237,0,.474.009.71,0a.649.649,0,0,1,.6.3c.6.813,1.208,1.617,1.814,2.423.056.074.112.148.172.218a.092.092,0,0,0,.156,0c.06-.071.115-.145.171-.219l1.724-2.3c.049-.066.1-.13.149-.2a.493.493,0,0,1,.421-.217l.432,0h1.143a.757.757,0,0,1,.275.029.233.233,0,0,1,.134.349,2.808,2.808,0,0,1-.195.278l-2.668,3.559c-.074.1-.147.2-.22.3a.211.211,0,0,0,.01.282c.18.225.358.451.539.677q1.283,1.6,2.566,3.208a1.517,1.517,0,0,1,.171.256.2.2,0,0,1-.111.281.83.83,0,0,1-.271.053c-.525.005-1.05,0-1.575,0a.6.6,0,0,1-.5-.252c-.63-.8-1.27-1.594-1.907-2.39-.071-.088-.141-.178-.213-.265-.122-.147-.153-.148-.279.009-.676.844-1.358,1.683-2.02,2.537a.835.835,0,0,1-.732.367c-.453-.011-.906,0-1.359,0a1.347,1.347,0,0,1-.306-.034.226.226,0,0,1-.152-.357,3.118,3.118,0,0,1,.223-.3l2.931-3.668c.214-.268.215-.271.005-.551q-1.406-1.88-2.815-3.758a1.859,1.859,0,0,1-.173-.255.226.226,0,0,1,.134-.325.646.646,0,0,1,.243-.03h.772" transform="translate(-26.089 1415.069)" fill="#4c4c4c"/>
      </g>
    </g>
  </g>
</svg>
