<?xml version="1.0" encoding="UTF-8"?>
<svg width="120px" height="48px" viewBox="0 0 120 48" version="1.1" xmlns="http://www.w3.org/2000/svg" xmlns:xlink="http://www.w3.org/1999/xlink">
    <!-- Generator: Sketch 51.3 (57544) - http://www.bohemiancoding.com/sketch -->
    <title>Group 24</title>
    <desc>Created with Sketch.</desc>
    <defs></defs>
    <g id="header" stroke="none" stroke-width="1" fill="none" fill-rule="evenodd">
        <g id="menu-aberto-copy" transform="translate(-976.000000, -392.000000)">
            <g id="Group-24" transform="translate(976.000000, 392.000000)">
                <g id="Group-23">
                    <g id="Group-4" transform="translate(39.000000, 13.000000)" fill="#4C4C4C">
                        <path d="M17.4880552,7.98259 L19.6403485,7.78810083 L21.7608398,7.59384083 L19.7668312,10.4437758 L19.6403485,10.3143517 L17.4880552,7.98259 Z M19.6403485,5.29461167 C13.6267538,5.71541667 11.1263485,4.2257325 17.1083742,0.7441225 L0.792621777,4.82488417 C0.792621777,4.82488417 6.03061652,5.78024333 9.19569333,6.68716583 C12.3607621,7.59384083 16.8551848,9.86101417 18.1845208,14.3139058 L22.3937192,14.3139058 C22.3937192,6.55750333 32.3319777,4.69522167 35.3703398,3.85337333 L41.6055727,2.36346 L42.8081931,0.323079167 C42.8081931,0.323079167 33.0282104,2.94646 26.8881329,4.20959 C24.1821071,4.79259 21.6974865,5.16494917 19.6403485,5.29461167 Z" id="Fill-1"></path>
                        <path d="M12.0915552,14.054821 C11.1421242,14.054821 10.4934692,14.5729916 9.98684854,15.220821 L9.36975375,15.9819275 L9.36975375,14.054821 L7.23347254,14.054821 C6.28381306,14.054821 5.61914325,14.5729916 5.11274927,15.220821 L0.0170207348,21.6656511 L3.05561135,21.6656511 L7.04340358,16.7105024 C7.6607286,15.8686513 7.97728117,15.9980773 8.35696221,15.9980773 L9.36975375,15.9980773 L4.89134496,21.6656511 L7.91392515,21.6656511 L11.9017192,16.7105024 C12.5348225,15.8686513 12.8513742,15.9980773 13.2310552,15.9980773 L14.2438485,15.9980773 L9.68630542,21.6656511 L13.00965,21.6656511 C13.7850296,21.6656511 14.2438485,21.0826513 14.2438485,20.4189067 L14.2438485,14.054821 L12.0915552,14.054821 Z M40.6401242,20.9045448 C40.7034865,20.9045448 40.7508313,20.888395 40.7508313,20.8074157 C40.7508313,20.7425872 40.6877019,20.7264392 40.6243485,20.7264392 L40.4978569,20.7264392 L40.4978569,20.9045448 L40.6401242,20.9045448 Z M40.6243485,20.5970132 C40.8141846,20.5970132 40.9251156,20.64546 40.9251156,20.8238002 C40.9251156,20.9693742 40.8459777,21.017821 40.7350467,21.0342037 L40.9409002,21.3581193 L40.7508312,21.3581193 L40.6243485,21.1313322 L40.5767708,21.0342037 L40.4978569,21.0342037 L40.4978569,21.3581193 L40.339581,21.3581193 L40.339581,20.5970132 L40.608564,20.5970132 C40.6243485,20.5970132 40.6243485,20.5970132 40.6243485,20.5970132 Z M40.6243485,21.6981819 L40.608564,21.6981819 C40.2446675,21.6981819 39.9123312,21.4390984 39.9123312,20.9855222 C39.9123312,20.5321829 40.2446675,20.2569492 40.608564,20.2569492 L40.6243485,20.2569492 C40.988245,20.2730972 41.3205812,20.5321829 41.3205812,20.9855222 C41.3205812,21.422714 40.988245,21.6981819 40.6243485,21.6981819 Z M40.6243485,20.4350557 C40.8933225,20.4350557 41.1149517,20.6618427 41.1149517,20.9855222 C41.1149517,21.3094385 40.8933225,21.5198431 40.6243485,21.5362256 L40.608564,21.5362256 C40.339581,21.5362256 40.1021673,21.3094385 40.1021673,20.9855222 C40.1021673,20.64546 40.339581,20.4350557 40.608564,20.4350557 L40.6243485,20.4350557 Z M36.351564,20.4673535 L36.8103829,20.4673535 C37.0638052,20.4673535 37.222081,20.2730972 37.222081,19.9168842 L37.222081,17.7470764 C37.222081,17.3744808 37.0638052,17.1963752 36.8103829,17.1963752 L35.9085296,17.1963752 C35.6553312,17.1963752 35.4970554,17.3744808 35.4970554,17.7470764 L35.4970554,19.9168842 C35.4970554,20.2730972 35.6553312,20.4673535 35.9085296,20.4673535 L36.351564,20.4673535 Z M36.351564,15.9980773 L38.1715121,15.9980773 C38.7412621,15.9980773 39.2474348,16.4191188 39.2474348,17.0021188 L39.2474348,20.6618427 C39.2474348,21.2446077 38.7412621,21.6656511 38.1715121,21.6656511 L34.5476244,21.6656511 C33.9618658,21.6656511 33.4714777,21.2446077 33.4714777,20.6618427 L33.4714777,17.0021188 C33.4714777,16.4191188 33.9618658,15.9980773 34.5476244,15.9980773 L36.351564,15.9980773 Z M20.2574433,20.4835015 L22.7578485,20.4835015 L22.7578485,21.6656511 L17.9628827,21.6656511 L17.9628827,20.4835015 C17.9628827,20.1272894 18.10515,19.9330349 18.2792104,19.7549284 L20.3999346,17.1802253 L17.8679692,17.1802253 L17.8679692,15.9980773 L22.662926,15.9980773 L22.662926,17.1802253 C22.662926,17.5364374 22.5204258,17.7306937 22.3463744,17.909034 L20.2574433,20.4835015 Z M31.6039519,15.9980773 L26.9830554,15.9980773 L26.9830554,19.9168842 C26.9830554,20.2407993 26.7774348,20.4673535 26.5557967,20.4673535 C26.5557967,20.4673535 26.0020552,20.4673535 25.7486329,20.4673535 C25.4954346,20.4673535 25.3371588,20.2730972 25.3371588,19.9168842 L25.3371588,15.9980773 L23.311581,15.9980773 L23.311581,20.6618427 C23.311581,21.2446077 23.8179777,21.6656511 24.3877277,21.6656511 L27.9327104,21.6656511 C28.5022365,21.6656511 29.0086242,21.2446077 29.0086242,20.6618427 L29.0086242,17.7470764 C29.0086242,17.4067777 29.2302623,17.1963752 29.4361069,17.1963752 C29.4361069,17.1963752 29.9898483,17.1963752 30.2430467,17.1963752 C30.496245,17.1963752 30.6545208,17.3744807 30.6545208,17.7470764 L30.6545208,21.6656511 L32.6800985,21.6656511 L32.6800985,17.0021188 C32.6800985,16.4191188 32.1737019,15.9980773 31.6039519,15.9980773 Z M16.12715,21.6656511 L15.177719,21.6656511 L15.177719,15.9980773 L17.2032967,15.9980773 L17.2032967,20.6618427 C17.2032967,21.2446077 16.6969,21.6656511 16.12715,21.6656511 Z" id="Fill-3"></path>
                    </g>
                    <rect id="Rectangle" stroke="#B0B0B0" fill-rule="nonzero" x="0.5" y="0.5" width="119" height="47" rx="4"></rect>
                </g>
            </g>
        </g>
    </g>
</svg>