<?xml version="1.0" encoding="utf-8"?>
<!-- Generator: Adobe Illustrator 27.4.1, SVG Export Plug-In . SVG Version: 6.00 Build 0)  -->
<svg width="120px" height="48px" viewBox="0 0 120 48" version="1.1" xmlns="http://www.w3.org/2000/svg" xmlns:xlink="http://www.w3.org/1999/xlink">
<style type="text/css">
	.st0{fill:none;stroke:#B0B0B0;}
	.st1{fill:none;}
	.st2{clip-path:url(#SVGID_00000104677847550070355710000000522833109810259107_);}
	.st3{fill:#4C4C4C;}
	.st4{clip-path:url(#SVGID_00000145021774163221146670000001238269854590125981_);}
	.st5{clip-path:url(#SVGID_00000035493091505400935720000015663880722166140078_);}
</style>
<g>
	<path id="Rectangle" class="st0" d="M4.5,0.5h111c2.2,0,4,1.8,4,4v39c0,2.2-1.8,4-4,4H4.5c-2.2,0-4-1.8-4-4v-39
		C0.5,2.3,2.3,0.5,4.5,0.5z"/>
	<g>
		<g transform="translate(23.104 0)">
			<path class="st1" d="M27.4,15.1h4.9v17.7h-4.9V15.1z"/>
			<g>
				<defs>
					<rect id="SVGID_1_" x="27.4" y="15.1" width="4.9" height="17.7"/>
				</defs>
				<clipPath id="SVGID_00000169540505201788905710000003869375657034839939_">
					<use xlink:href="#SVGID_1_"  style="overflow:visible;"/>
				</clipPath>
				<g transform="translate(0)" style="clip-path:url(#SVGID_00000169540505201788905710000003869375657034839939_);">
					<path class="st3" d="M29.8,15.1c-1.4,0-2.5,1.1-2.5,2.5c0,0,0,0,0,0v12.8c0,1.4,1.1,2.5,2.5,2.5s2.5-1.1,2.5-2.5c0,0,0,0,0,0
						V17.6C32.3,16.3,31.2,15.1,29.8,15.1C29.8,15.1,29.8,15.1,29.8,15.1"/>
				</g>
			</g>
		</g>
		<path class="st3" d="M46.6,15.3H35.9c-1.4,0-2.5,1.2-2.4,2.5c0,1.3,1.1,2.4,2.4,2.4h10.8c1.4,0,2.5-1.2,2.4-2.5
			C49.1,16.4,48,15.3,46.6,15.3"/>
		<g transform="translate(32.252)">
			<path class="st1" d="M25,15.1h29.3v17.5H25V15.1z"/>
			<g>
				<defs>
					<rect id="SVGID_00000029036829403864712310000011812726618083494273_" x="25" y="15.1" width="29.3" height="17.5"/>
				</defs>
				<clipPath id="SVGID_00000091734420428371213670000009932774170943741569_">
					<use xlink:href="#SVGID_00000029036829403864712310000011812726618083494273_"  style="overflow:visible;"/>
				</clipPath>
				<g transform="translate(0)" style="clip-path:url(#SVGID_00000091734420428371213670000009932774170943741569_);">
					<path class="st3" d="M52.9,25.2l-5.2-8.5c-0.5-0.9-1.5-1.5-2.5-1.5c-1.1,0-2,0.5-2.6,1.5l-6,10c-0.3,0.6-1,1-1.7,1h-4.5
						c-0.3,0-0.6-0.3-0.6-0.6c0,0,0,0,0,0v-9.5c0-1.3-1.1-2.4-2.4-2.4c0,0,0,0-0.1,0c-1.3,0-2.4,1-2.5,2.3c0,0,0,0,0,0.1v11.6
						c0.1,1.8,1.6,3.3,3.4,3.4h9c1.3,0,2.1-0.9,2.9-2.2l4.7-8.1c0-0.1,0.1-0.2,0.2-0.2c0.1,0,0.2,0.1,0.2,0.2l3.1,4.9
						c0.1,0.1,0.1,0.3,0.1,0.5C48.4,27.9,48.3,28,48,28h-4.3h0c-1.3,0-2.3,1.1-2.3,2.4c0,1.3,1,2.3,2.3,2.3h7c2-0.1,3.6-1.8,3.6-3.8
						C54.3,27.5,54.1,27,52.9,25.2"/>
				</g>
			</g>
		</g>
		<g transform="translate(0 8.841)">
			<path class="st1" d="M33.4,12.8h14.5v11H33.4V12.8z"/>
			<g>
				<defs>
					<rect id="SVGID_00000116212554717312685570000001860150540309813640_" x="33.4" y="12.8" width="14.5" height="11"/>
				</defs>
				<clipPath id="SVGID_00000070826971445380804850000013003888635888976288_">
					<use xlink:href="#SVGID_00000116212554717312685570000001860150540309813640_"  style="overflow:visible;"/>
				</clipPath>
				<g transform="translate(0 0)" style="clip-path:url(#SVGID_00000070826971445380804850000013003888635888976288_);">
					<path class="st3" d="M45.4,12.8h-9.6c-1.4,0-2.5,1.1-2.5,2.5c0,0,0,0,0,0v6.1c0,1.4,1.1,2.5,2.5,2.5c1.4,0,2.5-1.1,2.5-2.5
						c0,0,0,0,0,0v-2.8c0-0.4,0.3-0.7,0.7-0.7c0,0,0,0,0,0h6.4c1.4,0,2.5-1.1,2.5-2.5S46.8,12.8,45.4,12.8"/>
				</g>
			</g>
		</g>
	</g>
</g>
</svg>
