<?xml version="1.0" encoding="UTF-8"?>
<svg width="120px" height="48px" viewBox="0 0 120 48" version="1.1" xmlns="http://www.w3.org/2000/svg" xmlns:xlink="http://www.w3.org/1999/xlink">
    <!-- Generator: Sketch 51.3 (57544) - http://www.bohemiancoding.com/sketch -->
    <title>Group 25</title>
    <desc>Created with Sketch.</desc>
    <defs>
        <polygon id="path-1" points="2.22629621e-05 0.183975407 45.7940519 0.183975407 45.7940519 7.33333333 2.22629621e-05 7.33333333"></polygon>
    </defs>
    <g id="header" stroke="none" stroke-width="1" fill="none" fill-rule="evenodd">
        <g id="menu-aberto-copy" transform="translate(-1112.000000, -392.000000)">
            <g id="Group-25" transform="translate(1112.000000, 392.000000)">
                <rect id="Rectangle" stroke="#B0B0B0" fill-rule="nonzero" x="0.5" y="0.5" width="119" height="47" rx="4"></rect>
                <g id="Group-6" transform="translate(37.000000, 13.000000)">
                    <g id="Group-3" transform="translate(0.000000, 14.666667)">
                        <mask id="mask-2" fill="white">
                            <use xlink:href="#path-1"></use>
                        </mask>
                        <g id="Clip-2"></g>
                        <path d="M24.901751,3.42255874 C25.2677683,3.33241904 25.5228859,3.10050237 25.6611714,2.53950319 C25.861541,1.72458652 25.5581631,1.55286348 24.901751,1.55286348 C24.7843479,1.56019763 24.6669528,1.56019763 24.5357259,1.56783652 L24.0864486,3.45250319 C24.3974403,3.47480793 24.6669528,3.47480793 24.901751,3.42255874 Z M24.901751,0.438196815 L25.4472555,0.438196815 C27.2432303,0.438196815 27.6163141,1.38083652 27.3880034,2.46494681 C27.1461545,3.62391904 26.6144738,4.34930874 24.901751,4.55128015 C24.5772052,4.58855874 24.21118,4.60353015 23.8031124,4.60353015 L23.1610872,7.21358636 L21.3724486,7.21358636 L23.0436841,0.438196815 L24.901751,0.438196815 Z M2.89681431,6.06194681 C3.04864286,5.91222459 3.15249579,5.67297459 3.24195628,5.32891985 L3.97428738,2.32255874 C4.17409076,1.50764126 3.84277814,1.32828015 3.51823783,1.32828015 C3.31109666,1.32828015 3.07601762,1.38816985 2.89681431,1.57516985 C2.77236052,1.69494763 2.66850759,1.8746143 2.61347731,2.12883652 L1.84671679,5.15750237 C1.72254455,5.70322541 1.5983731,6.21900237 2.3165941,6.23397459 C2.56521934,6.24161348 2.75175966,6.18936348 2.89681431,6.06194681 Z M2.89681431,0.288780963 C3.19369831,0.221558741 3.51146472,0.183975407 3.82189493,0.183975407 C5.06558741,0.183975407 6.08746472,0.73794763 5.7352689,2.12883652 L4.92730507,5.34419681 C4.6165941,6.57803023 3.80863028,7.08647516 2.89681431,7.25880863 C2.62730586,7.31105868 2.35102352,7.32572506 2.08179662,7.32572506 C0.707158238,7.32572506 -0.308228234,6.929725 0.0857349586,5.34419681 L0.886925207,2.12883652 C1.149379,1.08903096 1.97117059,0.513363481 2.89681431,0.288780963 Z M42.0371714,5.52386348 C41.9886334,5.91222459 42.1407428,6.2043357 42.4997093,6.2043357 C42.8521883,6.2043357 43.1284738,6.05430793 43.2599783,5.70322541 C43.7222386,4.54425237 41.3189528,4.1253357 41.24981,2.68189207 C41.2080452,2.12883652 41.359869,1.67233652 41.6434907,1.2763357 C42.1475159,0.55094763 42.8798438,0.304057926 43.8608017,0.304057926 C45.2901883,0.304057926 45.9189448,1.11897459 45.7736086,1.86666985 L45.6562134,2.42766985 L44.1094238,2.42766985 C44.2265414,1.94153015 44.316289,1.42575237 43.6048355,1.42575237 C43.0387262,1.42575237 42.7762724,2.13586348 43.1075914,2.46494681 C43.5495245,2.86889126 44.1712303,3.35472541 44.5651966,3.82589207 C45.0068521,4.34930874 45.0968772,4.80550319 44.9171124,5.4936143 C44.4616252,7.35566937 42.9693059,7.33336364 42.2513648,7.33336364 C41.194499,7.33336364 40.2688521,7.0488915 40.3585917,5.82269763 C40.3794741,5.55380793 40.4551124,5.28430874 40.5174741,5.00014207 L42.1201379,5.00014207 L42.0371714,5.52386348 Z M36.1663817,0.438196815 L34.9926759,5.34419681 C34.6196,6.91475245 35.6205917,7.32572506 36.9814066,7.32572506 C38.1898186,7.32572506 39.4611714,6.929725 39.8339697,5.34419681 L41.0150117,0.438196815 L39.3158352,0.438196815 L38.1212469,5.34419681 C37.9555834,6.03964207 37.6999028,6.23397459 37.2576841,6.23397459 C36.6221545,6.23397459 36.567121,5.93514207 36.7192303,5.15750237 L37.8585076,0.438196815 L36.1663817,0.438196815 Z M29.2390117,7.21358636 L31.007331,7.21358636 L31.7529276,4.1473357 L32.540289,7.21358636 L34.2741797,7.21358636 L33.4179531,3.5120857 L35.7862552,0.438196815 L34.0393814,0.438196815 L32.0086083,3.11547459 L32.6717934,0.438196815 L30.8969866,0.438196815 L29.2390117,7.21358636 Z M26.7736338,7.21358636 L28.5554993,7.21358636 L30.1990872,0.438196815 L28.4381041,0.438196815 L26.7736338,7.21358636 Z M22.4081545,0.438196815 L20.7439697,7.21358636 L19.2519279,7.21358636 L20.4056,2.42766985 L18.0158603,7.21358636 L16.6276755,7.21358636 L16.7241883,2.46494681 L15.5431462,7.21358636 L13.7957093,7.21358636 L15.4669528,0.438196815 L17.8981797,0.438196815 L17.9193397,4.50666904 L19.9630959,0.438196815 L22.4081545,0.438196815 Z M9.83067586,7.21358636 L10.5285831,4.42416985 L9.7341631,0.438196815 L11.4401128,0.438196815 L11.8270203,2.80900237 L13.3743731,0.438196815 L15.039121,0.438196815 L12.2483645,4.4321143 L11.5851714,7.21358636 L9.83067586,7.21358636 Z M6.88188155,0.438196815 L8.61549069,0.438196815 L7.24762438,5.95744681 L9.44433931,5.95744681 L9.12656655,7.21358636 L5.19681431,7.21358636 L6.88188155,0.438196815 Z" id="Fill-1" fill="#4C4C4C" mask="url(#mask-2)"></path>
                    </g>
                    <path d="M17.3948366,3.98877111 C18.7214607,2.44002 22.079889,2.04951185 25.3093903,1.97554296 C32.1473538,1.82817556 34.8413438,3.98435481 32.0714459,6.20919852 C31.3902731,6.76238444 30.2146162,7.15112444 29.3941903,7.39131556 C28.2589976,7.75706963 28.2419776,7.98606519 27.869441,8.60674222 C27.6076852,9.01817481 28.1133362,9.31524815 28.6664228,9.16759556 C31.3710166,9.11661259 34.6365169,6.96810074 35.4276455,5.61003259 C37.5984093,5.57908593 39.6561638,5.79688593 41.2961669,6.20919852 C44.0853214,6.91063185 44.7971872,8.84664815 40.1126979,10.6597659 C36.96468,11.8831533 33.1957652,12.0066385 29.8498917,11.3611993 C25.4148731,10.5501326 24.8310934,8.34709333 28.0142697,6.85964074 C29.2248072,6.30055556 30.382889,5.9899237 31.3372541,5.81161778 C32.3206469,5.63331185 31.2527014,4.51278667 29.8264555,4.71289704 C25.8769907,5.26579778 24.1842383,6.76474741 23.596271,8.27017481 C21.437499,8.50359481 18.7613697,7.89263852 16.9494614,6.81337556 C16.2780597,6.41344 15.7375279,6.30439333 14.2825321,6.24927926 C13.5198759,6.21833259 13.4556979,6.38455481 13.8399566,6.91887778 C15.142859,8.05827407 17.087041,9.24245259 19.6071828,9.64180148 C17.8494117,10.920303 15.48498,11.8236148 11.5971869,11.8236148 C3.54282721,11.8236148 1.40582424,9.0444037 6.10762066,7.04060296 C9.01760207,5.79304815 11.0485655,5.68252667 12.9810255,5.56582074 C15.8153869,5.39989185 18.40529,6.01467778 20.1915255,6.98548889 C20.8665597,7.34799185 21.2949069,7.22627481 22.2668552,7.26311259 C23.2212203,7.29995852 23.3200093,7.10986222 22.7030145,6.47061556 C21.1146345,4.84787926 19.3733362,4.45590444 17.3948366,3.98877111 M23.3721876,10.3058104 C24.2277717,11.8359919 26.7755452,12.9140815 29.8077541,13.3629385 C34.038509,13.9467819 38.6133279,13.8913736 42.9833359,11.58696 C48.10036,8.88879037 47.1510152,4.17828074 35.8495686,3.95694444 C35.1971459,1.68759556 31.5895245,0.170671111 26.1133434,0.225785185 C25.1533948,0.238162222 24.2394938,0.287385185 23.3721876,0.379923704 C19.5429969,0.778971111 16.5866879,1.96552074 14.2825321,3.93837481 C10.7092362,3.8708837 6.48378645,4.73117333 4.22595338,5.80042222 C-2.0067381,8.76942815 0.291837166,13.6305481 11.0055952,13.6305481 C14.82948,13.6305481 19.3978907,12.6040363 22.4820083,9.9860363 L23.2212203,9.9860363 C23.2616845,10.0965578 23.3144259,10.20118 23.3721876,10.3058104" id="Fill-4" fill="#4C4C4C"></path>
                </g>
            </g>
        </g>
    </g>
</svg>