<?xml version="1.0" encoding="UTF-8"?>
<svg width="120px" height="48px" viewBox="0 0 120 48" version="1.1" xmlns="http://www.w3.org/2000/svg" xmlns:xlink="http://www.w3.org/1999/xlink">
    <!-- Generator: Sketch 51.3 (57544) - http://www.bohemiancoding.com/sketch -->
    <title>Group 19</title>
    <desc>Created with Sketch.</desc>
    <defs></defs>
    <g id="header" stroke="none" stroke-width="1" fill="none" fill-rule="evenodd">
        <g id="menu-aberto-copy" transform="translate(-976.000000, -280.000000)">
            <g id="Group-19" transform="translate(976.000000, 280.000000)">
                <rect id="Rectangle" stroke="#B0B0B0" fill-rule="nonzero" x="0.5" y="0.5" width="119" height="47" rx="4"></rect>
                <path d="M45.8676459,17.6209141 C43.3948801,20.5933352 41.0239674,24.2799702 41.0001932,27.0351491 C40.9909337,28.0718954 41.3140125,28.9769681 42.0898016,29.6630091 C43.2059379,30.6498003 44.4354386,30.9979454 45.6591836,30.9999946 C47.4475029,31.0022992 49.2233131,30.2639992 50.6137263,29.6945186 C52.9553582,28.7359052 78.8399471,17.229217 78.8399471,17.229217 C79.0896987,17.1013862 79.0426529,16.9415365 78.7303359,17.0214614 C78.6042081,17.0537415 50.5511608,24.8361288 50.5511608,24.8361288 C50.0096125,24.9916288 49.456548,25.0723235 48.9182535,25.0753981 C46.762306,25.0884628 44.8438544,23.8634261 44.8593702,21.2819381 C44.8656259,20.2715703 45.1676836,19.0537081 45.8676459,17.6209141" id="Fill-1" fill="#4C4C4C"></path>
            </g>
        </g>
    </g>
</svg>