<?xml version="1.0" encoding="UTF-8"?>
<svg width="120px" height="48px" viewBox="0 0 120 48" version="1.1" xmlns="http://www.w3.org/2000/svg" xmlns:xlink="http://www.w3.org/1999/xlink">
    <!-- Generator: Sketch 51.3 (57544) - http://www.bohemiancoding.com/sketch -->
    <title>Group 20</title>
    <desc>Created with Sketch.</desc>
    <defs>
        <polygon id="path-1" points="1.17466004e-05 0.071009946 5.55600861 0.071009946 5.55600861 4.69565217 1.17466004e-05 4.69565217"></polygon>
        <polygon id="path-3" points="0 -5.88197517e-07 41.1290323 -5.88197517e-07 41.1290323 4.69565217 0 4.69565217"></polygon>
    </defs>
    <g id="header" stroke="none" stroke-width="1" fill="none" fill-rule="evenodd">
        <g id="menu-aberto-copy" transform="translate(-1112.000000, -280.000000)">
            <g id="Group-20" transform="translate(1112.000000, 280.000000)">
                <rect id="Rectangle" stroke="#B0B0B0" fill-rule="nonzero" x="0.5" y="0.5" width="119" height="47" rx="4"></rect>
                <g id="Group-16" transform="translate(35.000000, 15.000000)">
                    <g id="Group-5" transform="translate(8.064516, 0.000000)" fill="#4C4C4C">
                        <path d="M16.5960887,1.0877087 C14.3420887,1.0877087 12.2014839,1.47058435 10.3260968,2.11548522 C9.40772581,2.43125217 8.59159677,2.81916783 7.87359677,3.38276348 C7.24696774,3.87468 6.50607258,4.66351043 6.67933065,5.74768174 C6.82862903,6.68299304 7.62323387,7.34995565 8.30004839,7.79335043 C9.05572581,8.28828783 9.96195968,8.6624687 10.880621,8.94088174 C12.8652823,9.54248087 15.0887581,9.80157913 17.385121,9.77905565 C19.5668226,9.75772174 21.8616129,9.4035913 23.6657742,8.74129304 C24.555379,8.41472609 25.4087823,8.01490696 26.1076129,7.46403652 C26.7509677,6.95692174 27.4340484,6.1376087 27.2592177,5.11907478 C27.1026855,4.2067487 26.3591452,3.53969217 25.6385,3.07340609 C24.84575,2.56061739 24.0054516,2.22306261 23.0579355,1.92587478 C21.6070484,1.47085826 19.9583548,1.20096 18.3767661,1.12762174 C17.8806452,1.10464435 17.228,1.06051304 16.6174194,1.0877087 C16.610371,1.08798261 16.603129,1.0877087 16.5960887,1.0877087 M16.5213468,5.47826087e-05 C19.4249597,-0.00296608696 21.7063548,0.125483478 24.1775484,0.518885217 C26.8755161,0.948451304 29.3917097,1.52780087 31.4179516,2.61445304 C31.5676371,2.69474087 31.6820081,2.74711304 31.8765,2.86383913 C32.6663145,3.33854609 33.6494516,4.09889739 33.8384597,5.11907478 C33.991379,5.94388174 33.5792984,6.61588435 33.1346452,7.09480174 C32.6731613,7.59184435 32.1071935,7.97023565 31.5031613,8.29222435 C29.0393145,9.60602087 25.7905323,10.3054852 22.4181935,10.6672124 C20.8508952,10.835305 19.2074758,10.9565217 17.2785806,10.9565217 C15.4031935,10.9565217 13.7470645,10.8857512 12.1495323,10.7370681 C8.9003629,10.4346673 5.49740323,9.79736087 2.93649194,8.58162522 C2.29881452,8.2789513 1.70221774,7.94844 1.16637903,7.50394957 C0.657741935,7.08198261 0.172879032,6.55848 0.0361048387,5.83749391 C-0.193608065,4.62624261 0.718596774,3.74531478 1.4756371,3.20313913 C2.28697581,2.62213826 3.33105645,2.13672522 4.33337097,1.78616348 C6.41664516,1.05758609 8.93587903,0.573362609 11.4350484,0.289361739 C13.1006694,0.10011913 14.5786532,0.00206608696 16.5213468,5.47826087e-05" id="Fill-1"></path>
                        <path d="M32.0309919,10.3050344 C31.888129,10.3459234 31.6911774,10.4133365 31.6902419,10.5555365 C31.6896129,10.6667108 31.8422742,10.7562443 31.9514839,10.7956002 C32.3145403,10.9262137 32.995,10.9435461 33.3939032,10.7851633 C33.4931129,10.7457112 33.6293065,10.6472723 33.6324355,10.5659742 C33.6380565,10.4244449 33.3623306,10.3146104 33.2349919,10.2841599 C33.0158468,10.2317807 32.7650242,10.2257483 32.5875565,10.2319717 C32.3985323,10.2385792 32.2206532,10.2508357 32.0309919,10.3050344 M32.4399032,10.1797842 C32.6840484,10.1662826 33.0153226,10.174421 33.2803226,10.221534 C33.49175,10.2591665 33.8690887,10.3486046 33.8709597,10.5555365 C33.8727339,10.7408277 33.578871,10.8363937 33.3939032,10.8791014 C32.9480081,10.9818493 32.4260403,10.9828072 31.9514839,10.8791014 C31.7386935,10.8325628 31.457129,10.7453285 31.4517097,10.5659742 C31.445879,10.3684265 31.6984758,10.3038863 31.8493629,10.2632846 C32.0764274,10.2020956 32.2281532,10.1914662 32.4399032,10.1797842" id="Fill-3"></path>
                        <path d="M32.4717823,10.4917727 C32.5612097,10.4690348 32.7776855,10.5494635 32.8313629,10.3992973 C32.7825,10.2896836 32.3911774,10.1802397 32.4717823,10.4917727 Z M32.2580645,10.177355 C32.4496694,10.2172297 33.073879,10.0531487 33.0548871,10.4177919 C33.0449919,10.6073233 32.8916371,10.5737275 32.8022097,10.6027427 C32.8815645,10.7291543 33.0002339,10.7807369 33.0645161,10.9356543 C32.7871371,11.0573147 32.6826452,10.6074939 32.4717823,10.6027427 C32.4513629,10.674857 32.466879,10.8155207 32.4621532,10.9171589 C32.423371,10.9407443 32.3355484,10.9354844 32.2580645,10.9356543 L32.2580645,10.177355 Z" id="Fill-4"></path>
                    </g>
                    <g id="Group-8" transform="translate(0.000000, 13.304348)">
                        <mask id="mask-2" fill="white">
                            <use xlink:href="#path-1"></use>
                        </mask>
                        <g id="Clip-7"></g>
                        <path d="M2.1762,0.643791913 C2.13775403,0.717725739 2.15488468,0.928477565 2.15488468,1.05526017 L2.15488468,3.24288157 C2.15488468,3.50197122 2.10096371,3.95146503 2.1867121,4.0958334 C2.27557419,4.24517353 2.52123629,4.24342409 2.77030484,4.2463703 C2.96739839,4.2486721 3.26805161,4.25990473 3.3643121,4.10586918 C3.45151935,3.96628834 3.39613871,3.55012513 3.39613871,3.2729893 L3.39613871,1.52685078 C3.39613871,1.3390247 3.44587419,0.808324435 3.38552984,0.663864261 C3.30854194,0.479444087 2.79843306,0.491690348 2.62168145,0.503290957 C2.49485968,0.511577217 2.24209274,0.516917739 2.1762,0.643791913 M2.26107177,0.0717511304 C3.21851048,0.069818087 4.07034597,0.0615318261 4.84947581,0.21225287 C5.1106129,0.2628 5.40416129,0.358370609 5.49652823,0.543434087 C5.58324919,0.716989304 5.54957339,1.00489696 5.54957339,1.42649296 L5.54957339,3.74457991 C5.54957339,3.89290774 5.56942823,4.08008903 5.52835484,4.1862474 C5.40075484,4.51521923 4.70649758,4.59301993 4.35085242,4.62773099 C3.39312177,4.7213678 2.25377177,4.7151988 1.27443387,4.62773099 C0.890466129,4.59329611 0.203508065,4.51540362 0.0544952742,4.20613513 C-0.0341726935,4.02226787 0.0120592339,3.58805817 0.0120592339,3.31313243 L0.0120592339,1.46672843 C0.0120592339,1.1409793 -0.0396231935,0.710820783 0.0969312903,0.51332713 C0.235237742,0.31334713 0.689186613,0.20212513 1.06235161,0.152038174 C1.47863306,0.0961505217 1.79622177,0.0726722609 2.26107177,0.0717511304" id="Fill-6" fill="#4C4C4C" mask="url(#mask-2)"></path>
                    </g>
                    <g id="Group-15" transform="translate(8.870968, 13.304348)">
                        <mask id="mask-4" fill="white">
                            <use xlink:href="#path-3"></use>
                        </mask>
                        <g id="Clip-10"></g>
                        <path d="M2.16866935,2.98328635 C2.55042742,2.96593826 3.00758065,2.96593826 3.38924194,2.98328635 C3.17206452,2.36636374 2.9628871,1.74163617 2.72450806,1.1451467 C2.54962903,1.76785122 2.34475,2.36173774 2.16866935,2.98328635 M1.76550806,6.73043478e-05 C2.64862097,-0.000125217391 3.6251129,0.000164347826 4.54451613,6.73043478e-05 C5.18254839,1.56304565 5.82287903,3.12370983 6.4516129,4.69565217 L3.94508065,4.69565217 C3.80729839,4.3102321 3.68141129,3.91334353 3.54182258,3.52956209 C3.07227419,3.51279313 2.52903226,3.51153939 2.05967742,3.52956209 C1.92549194,3.9009107 1.82300806,4.3028118 1.71101613,4.69565217 L0,4.69565217 C0.424451613,3.52792487 0.873209677,2.3587513 1.30775806,1.18707104 C1.45364516,0.793846174 1.62162903,0.347224696 1.76550806,6.73043478e-05" id="Fill-9" fill="#4C4C4C" mask="url(#mask-4)"></path>
                        <path d="M12.1375403,1.89999157 C12.6721532,1.38507026 13.2310968,0.805878783 13.7888952,0.235044783 C13.8565081,0.165972522 13.9765806,0.0304215652 14.0360565,0.015242087 C14.1700403,-0.0190526087 14.4084355,0.015242087 14.5640645,0.015242087 C15.0772419,0.015242087 15.6209274,0.0238891304 16.1254435,0.00477078261 C16.1471855,0.0610669565 16.0642177,0.0906550435 16.0355645,0.119956696 C15.453129,0.717688174 14.8272016,1.35231104 14.2269355,1.94187678 C14.8215323,2.85711261 15.4574597,3.78964017 16.0244355,4.69565217 L13.4293952,4.69565217 C12.9710565,4.04085655 12.5827984,3.32073391 12.1375403,2.65392939 L12.1375403,4.69565217 L9.68865323,4.69565217 C9.68102419,3.18422113 9.70370161,1.55453243 9.67741935,0.0257133913 C10.4564032,0.00131321739 11.3435081,0.022064087 12.1038387,0.015242087 C12.1654758,0.00909469565 12.1375403,0.141764087 12.1375403,0.214199217 L12.1375403,1.89999157 Z" id="Fill-11" fill="#4C4C4C" mask="url(#mask-4)"></path>
                        <path d="M19.3771371,0.00854843478 L21.7852903,0.00854843478 C21.7851935,1.35426365 21.7852903,2.75577574 21.7852903,4.06647141 C22.584379,4.07339906 23.4129919,4.05252211 24.1935484,4.07695774 L24.1935484,4.69565217 L19.3548387,4.69565217 C19.3805,3.25825357 19.3588065,1.55706261 19.3660403,0.0295215652 C19.3437419,0.0201889565 19.3708226,-0.0163690435 19.3771371,0.00854843478" id="Fill-12" fill="#4C4C4C" mask="url(#mask-4)"></path>
                        <path d="M27.4316613,0.00674217391 L32.2580645,0.00674217391 L32.2580645,0.604694348 L29.9070887,0.604694348 C29.8806452,1.06280609 29.90325,1.56615183 29.8957823,2.04177913 C30.4986129,2.04870991 31.1315242,2.02782522 31.7155887,2.05227 C31.7198387,2.25447496 31.7073952,2.44811348 31.7268871,2.59776939 L29.9070887,2.59776939 L29.9070887,4.08721109 C30.6643387,4.11165571 31.4706371,4.09077125 32.2468629,4.09779736 L32.2468629,4.69565217 L27.4204677,4.69565217 L27.4204677,0.027723913 C27.4155887,0.00751304348 27.4281371,-0.0100995652 27.4316613,0.00674217391" id="Fill-13" fill="#4C4C4C" mask="url(#mask-4)"></path>
                        <path d="M41.1181855,0.000365478261 C41.1274435,-0.00155504348 41.1284355,0.00440373913 41.1290323,0.0108430435 C40.4899355,0.989179826 39.7712581,1.98174365 39.1014274,2.96527148 C39.1083871,3.52797261 39.0872016,4.17305223 39.1122661,4.68346422 C38.3387742,4.70787894 37.5182177,4.68682878 36.7267177,4.69394153 C36.7262177,4.28417092 36.7267177,3.85142635 36.7267177,3.40522435 C36.7267177,3.26248278 36.7542742,3.10003435 36.7267177,2.97574826 C36.7026371,2.86674496 36.5509274,2.71804304 36.4664597,2.59865922 C35.8579113,1.73730287 35.2525403,0.859031217 34.6774194,0.0108430435 L37.1821613,0.0108430435 C37.5514435,0.572392174 37.8869113,1.16681557 38.2339113,1.74999209 C38.597629,1.17950322 38.9352823,0.583638261 39.2965161,0.0108430435 C39.9001935,0.00382695652 40.532621,0.024782087 41.1181855,0.000365478261" id="Fill-14" fill="#4C4C4C" mask="url(#mask-4)"></path>
                    </g>
                </g>
            </g>
        </g>
    </g>
</svg>