<?xml version="1.0" encoding="UTF-8"?>
<svg width="120px" height="48px" viewBox="0 0 120 48" version="1.1" xmlns="http://www.w3.org/2000/svg" xmlns:xlink="http://www.w3.org/1999/xlink">
    <!-- Generator: Sketch 51.3 (57544) - http://www.bohemiancoding.com/sketch -->
    <title>Group 26</title>
    <desc>Created with Sketch.</desc>
    <defs>
        <polygon id="path-1" points="0 0.033744 17.4248159 0.033744 17.4248159 18 0 18"></polygon>
    </defs>
    <g id="header" stroke="none" stroke-width="1" fill="none" fill-rule="evenodd">
        <g id="menu-aberto-copy" transform="translate(-976.000000, -448.000000)">
            <g id="Group-26" transform="translate(976.000000, 448.000000)">
                <rect id="Rectangle" stroke="#B0B0B0" fill-rule="nonzero" x="0.5" y="0.5" width="119" height="47" rx="4"></rect>
                <g id="Group-13" transform="translate(33.000000, 15.000000)">
                    <g id="Group-3">
                        <mask id="mask-2" fill="white">
                            <use xlink:href="#path-1"></use>
                        </mask>
                        <g id="Clip-2"></g>
                        <path d="M5.55430495,12.7755888 C4.53493736,12.7755888 4.04492484,11.98752 4.3002711,11.075478 C4.82899516,9.186234 8.22440989,6.385842 10.5376555,6.385842 C12.226222,6.385842 12.0970989,7.903422 11.1084951,9.198534 L10.5614868,9.806604 C8.60042857,11.741982 6.78172967,12.7755888 5.55430495,12.7755888 M13.8248786,0.033744 C10.8719407,0.03501 7.61914396,1.851234 5.5776328,3.571122 L5.73903665,3.805632 C8.9078544,1.572108 13.3068692,0.119562 14.5199214,2.298192 C15.1602423,3.448164 14.0727835,5.769282 12.5422181,7.604136 C12.9091588,6.793884 12.6674308,5.23815 10.5332434,5.23815 C6.98399066,5.23815 -1.26096929e-05,9.963786 -1.26096929e-05,14.7985608 C-1.26096929e-05,16.7360964 1.33611016,18.0000252 3.53751055,18.0000252 C9.4311522,18.0000252 17.4248159,8.288136 17.4248159,3.410136 C17.4243143,1.687464 16.4382368,0.033744 13.8248786,0.033744" id="Fill-1" fill="#4C4C4C" mask="url(#mask-2)"></path>
                    </g>
                    <g id="Group-10" transform="translate(17.527473, 4.200000)" fill="#4C4C4C">
                        <path d="M3.65911374,8.601441 C3.31407033,8.601441 3.02622088,8.4801534 2.84626209,8.2610724 C2.65842198,8.0299254 2.60263626,7.703274 2.69210495,7.365444 C2.88858187,6.631872 3.67945165,6.05718 4.49166868,6.05718 L6.4029489,6.05718 L5.72073736,8.601441 L3.65911374,8.601441 Z M9.1541456,0.97221 C8.60665385,0.300744 7.72237473,0 7.08896813,0 L3.61450934,0 L3.02507253,2.197926 L6.3008967,2.197926 L6.61467473,2.23107 C6.61798077,2.23107 6.91663681,2.265618 7.08108681,2.489394 C7.21580055,2.675454 7.23524396,2.953212 7.13866154,3.316314 L6.98348297,3.894312 L4.91982857,3.894312 C3.14288736,3.894312 0.666321978,5.168412 0.11462967,7.22574 C-0.160388462,8.2521822 0.0803181319,9.1406982 0.613957143,9.793878 C1.14328077,10.4422314 2.14155495,10.7994918 3.22104176,10.7994918 L5.13257582,10.7994918 L5.1315544,10.8 L7.56123077,10.8 L8.70133242,6.547032 L9.54011264,3.420588 C9.86927253,2.191194 9.51266703,1.410372 9.1541456,0.97221 Z" id="Fill-4"></path>
                        <path d="M32.5279066,0 C31.6051275,0 30.7482516,0.27789 30.0500176,0.804198 C29.3455462,1.334952 28.9572341,1.972896 28.7255753,2.852028 C28.223933,4.757988 29.694911,5.677632 30.8789341,6.329298 C31.7270764,6.797436 32.4598758,7.200426 32.3021104,7.797984 C32.1892758,8.2273866 32.0054187,8.6021784 30.961567,8.6021784 L27.7758341,8.6021784 L27.1978022,10.8 L30.7239126,10.8 C31.6695319,10.8 32.5417593,10.5993324 33.2451126,10.0501626 C33.9497049,9.4994682 34.3472522,8.7309606 34.593767,7.794042 C34.8291791,6.901326 34.6697819,6.050268 34.1062313,5.413968 C33.6361687,4.88106 32.9596505,4.509948 32.3631484,4.182276 C31.5996396,3.764046 30.8799313,3.369444 31.0059962,2.890764 C31.0825126,2.601954 31.3654786,2.19795 31.9820769,2.19795 L35.0803115,2.19795 L35.6593407,0 L32.5279066,0 Z" id="Fill-6"></path>
                        <path d="M13.792483,0 C12.8694802,0 12.012133,0.27789 11.314044,0.804198 C10.6099654,1.334952 10.2216714,1.972896 9.98876758,2.852028 C9.48713736,4.757988 10.9603214,5.677632 12.1428154,6.329298 C12.9911753,6.797436 13.7242104,7.200426 13.5663181,7.797984 C13.4531148,8.2273866 13.2693846,8.6021784 12.2254423,8.6021784 L9.04054945,8.6021784 L8.46153846,10.8 L11.987794,10.8 C12.9341385,10.8 13.8065896,10.5993324 14.5096648,10.0501626 C15.2144929,9.4994682 15.6117742,8.7309606 15.858283,7.794042 C16.0933082,6.901326 15.9335484,6.050268 15.3708863,5.413968 C14.9014582,4.88106 14.223967,4.509948 13.6267275,4.182276 C12.8642401,3.764046 12.1443143,3.369444 12.2708747,2.890764 C12.3468835,2.601954 12.630339,2.19795 13.245922,2.19795 L16.3431896,2.19795 L16.9230769,0 L13.792483,0 Z" id="Fill-7"></path>
                        <polygon id="Fill-8" points="18.9404467 0 16.3186813 10.8 18.5332654 10.8 21.1538462 0"></polygon>
                        <path d="M27.6340731,0 C23.5632511,0.015366 21.4330225,2.803002 20.756178,5.399874 C19.9539516,8.4789828 21.5485286,10.8 24.4649247,10.8 L26.4192379,10.8 L26.9913286,8.6021784 L25.0378797,8.6021784 C23.9460813,8.6021784 22.445633,7.718856 23.0504577,5.399874 C23.5308797,3.556014 25.278278,2.19795 27.1973852,2.19795 L28.4380341,2.19795 L29.010989,0 L27.6340731,0 Z" id="Fill-9"></path>
                    </g>
                    <path d="M53.7489132,14.5207002 L53.9144148,14.5207002 L53.9144148,14.1531 L54.0453692,14.1531 C54.1335082,14.1531 54.1951566,14.1628998 54.2292022,14.1823998 C54.2882335,14.2177998 54.3190577,14.2891002 54.3190577,14.3971002 L54.3190577,14.4715002 L54.3217775,14.5012002 C54.3229863,14.5053 54.3233912,14.5087998 54.3243945,14.5123002 C54.3252044,14.5150002 54.3260082,14.5177998 54.3265099,14.5207002 L54.4817429,14.5207002 L54.4765027,14.5096002 C54.4727736,14.5018002 54.4701566,14.4852 54.4680412,14.4607002 C54.466633,14.4358998 54.4650192,14.4130998 54.4656236,14.3911998 L54.4656236,14.3230002 C54.4650192,14.2758 54.4489,14.2275 54.4144495,14.1784998 C54.3803011,14.1286998 54.3260082,14.0986002 54.2521692,14.0866998 C54.3099918,14.0775 54.3560286,14.0631 54.3887626,14.0413998 C54.4503143,14.0017998 54.4806308,13.941 54.4804313,13.8571998 C54.4806308,13.74 54.4321824,13.6612998 54.3351769,13.6209 C54.2804791,13.5988002 54.1951566,13.5879 54.0779038,13.5879 L53.7489132,13.5879 L53.7489132,14.5207002 M54.2214478,14.0176002 C54.1866951,14.0311002 54.1341126,14.0385 54.0641055,14.0385 L53.9144148,14.0385 L53.9142154,13.7004 L54.0554385,13.7004 C54.1473066,13.7004 54.2141951,13.7115 54.2558984,13.7350002 C54.2978011,13.7581998 54.3190577,13.8034998 54.3190577,13.8712998 C54.3190577,13.9435998 54.2860154,13.992 54.2214478,14.0176002 M54.7019423,13.4568 C54.5341198,13.2916002 54.3310429,13.2091998 54.0936181,13.2091998 C53.8587077,13.2091998 53.6568396,13.2916002 53.4900264,13.4568 C53.3226088,13.6228002 53.2397099,13.8229998 53.2397099,14.0566002 C53.2397099,14.2932 53.3226088,14.4945 53.4882132,14.6602002 C53.6548269,14.8266 53.8566951,14.91 54.0942225,14.91 C54.3316473,14.91 54.5341198,14.8266 54.7013379,14.6602002 C54.8689549,14.4934002 54.9529659,14.2924002 54.9529659,14.0566002 C54.9529659,13.8220998 54.8689549,13.6219002 54.7019423,13.4568 M54.6159187,13.5391002 C54.7599643,13.6822002 54.8313857,13.8544998 54.8313857,14.0566002 C54.8313857,14.2605 54.7599643,14.4342 54.6159187,14.5779 C54.4728764,14.7214998 54.2994148,14.7934002 54.0942225,14.7934002 C53.8895319,14.7934002 53.7160703,14.7214998 53.5718253,14.5779 C53.4295868,14.4342 53.3583709,14.2605 53.3583709,14.0566002 C53.3583709,13.8544998 53.4301912,13.6822002 53.5728286,13.5391002 C53.7174846,13.3954998 53.8911456,13.3242 54.0936181,13.3242 C54.2980066,13.3242 54.4727736,13.3954998 54.6159187,13.5391002" id="Fill-11" fill="#4C4C4C"></path>
                </g>
            </g>
        </g>
    </g>
</svg>