<?xml version="1.0" encoding="UTF-8"?>
<svg width="120px" height="48px" viewBox="0 0 120 48" version="1.1" xmlns="http://www.w3.org/2000/svg" xmlns:xlink="http://www.w3.org/1999/xlink">
    <!-- Generator: Sketch 51.3 (57544) - http://www.bohemiancoding.com/sketch -->
    <title>Group 29</title>
    <desc>Created with Sketch.</desc>
    <defs></defs>
    <g id="header" stroke="none" stroke-width="1" fill="none" fill-rule="evenodd">
        <g id="menu-aberto-copy" transform="translate(-1112.000000, -504.000000)">
            <g id="Group-29" transform="translate(1112.000000, 504.000000)">
                <g id="Group-9" transform="translate(39.000000, 13.000000)" fill="#4C4C4C">
                    <path d="M23.1410413,0.132586667 C23.0015421,0.15433 22.8674269,0.679974167 22.5981663,0.954185833 C22.4005723,1.1513975 22.1548542,1.139875 22.0235519,1.38397417 C21.9738958,1.4748525 21.9900208,1.6309425 21.9339685,1.78075333 C21.8236556,2.07958667 21.4358852,2.10604167 21.4358852,2.432375 C21.4351148,2.78464083 21.7588958,2.85168583 22.0401875,3.1018075 C22.2600519,3.30242 22.2807815,3.44123083 22.5467185,3.53918583 C22.7734898,3.61801917 23.1110935,3.35977583 23.4149065,3.45275333 C23.6642079,3.52870833 23.903261,3.58318583 23.9595731,3.8453525 C24.0089694,4.0873525 23.955739,4.461875 23.6537087,4.41866333 C23.5513329,4.406875 23.1090421,4.25470833 22.5664269,4.313375 C21.9104171,4.39010917 21.1630412,4.6088075 21.0895829,5.35654167 C21.0493958,5.77427583 21.5546458,6.26718583 22.0424898,6.16714083 C22.3795829,6.09904167 22.2201246,5.69204167 22.403636,5.49404167 C22.6444898,5.24077583 24.0089694,6.37849667 25.2772185,6.37849667 C25.8108754,6.37849667 26.2086254,6.24047417 26.6025413,5.81749667 C26.6396467,5.78527583 26.6844473,5.7163975 26.7417717,5.71168583 C26.7952708,5.7163975 26.8892079,5.7703525 26.9201769,5.7933975 C27.9414269,6.63333 28.7136352,8.31868583 32.4676875,8.33833 C32.9962292,8.34147417 33.5972079,8.59945167 34.0883754,9.05751917 C34.5263125,9.4718525 34.782261,10.11692 35.0313027,10.77142 C35.4075527,11.7525192 36.0804579,12.7076858 37.1009375,13.7697093 C37.1569898,13.8265426 37.9972815,14.4949228 38.0646033,14.5449471 C38.0750935,14.5522804 38.1370315,14.7031372 38.1155315,14.7872093 C38.0907079,15.4244237 38.0000944,17.2768759 39.349739,17.3604228 C39.6794056,17.3777083 39.5931458,17.1398984 39.5931458,16.977257 C39.5923754,16.6543273 39.5353019,16.3337561 39.7011565,16.0034948 C39.9284473,15.5493525 39.2191981,15.3400894 39.2396769,14.3576849 C39.2547806,13.6253993 38.6530315,13.750066 38.3484481,13.1924714 C38.172614,12.8690183 38.0164792,12.6974742 38.02748,12.3022533 C38.0963338,10.0771092 37.5649792,8.6148975 37.3000633,8.25583 C37.0932602,7.98475333 36.9222815,7.877375 37.1114277,7.75166333 C38.2376246,6.9903075 38.4930625,6.282375 38.4930625,6.282375 C39.0919898,4.84164083 39.630511,3.52583 40.3732913,2.94675333 C40.5230208,2.82706417 40.9066973,2.53347417 41.1414056,2.41901917 C41.8352913,2.08456417 42.199761,1.8818525 42.4011981,1.68123083 C42.7190935,1.36406417 42.9714588,0.7014425 42.666114,0.2999425 C42.2862806,-0.19558 41.6297602,0.197541667 41.3400208,0.373541667 C39.2693648,1.6309425 38.9642708,3.84927583 38.2470935,5.12266333 C37.6745306,6.14068583 36.744136,6.88842 35.9125519,6.9494425 C35.2893027,6.9968525 34.6166663,6.86773083 33.9476042,6.5668075 C32.3194898,5.83660917 31.4292913,4.89375333 31.218636,4.72718583 C30.7814694,4.38199667 27.3860102,0.9709425 24.6355421,0.832140833 C24.6355421,0.832140833 24.2938444,0.132586667 24.2081042,0.1208075 C24.0069269,0.0946091667 23.801145,0.538541667 23.6537087,0.590140833 C23.5147292,0.637275833 23.2813019,0.109541667 23.1410413,0.132586667" id="Fill-1"></path>
                    <path d="M11.0314171,20.4878282 C10.772136,20.4812804 10.5522806,20.2638993 10.5522806,19.995184 L10.5530421,11.21483 L7.72502615,11.21483 L7.72502615,20.893257 C7.72502615,21.3680896 8.10050842,21.7546615 8.56147917,21.7546615 L13.5044277,21.7546615 C13.9682185,21.7546615 14.3393444,21.3680896 14.3393444,20.893257 L14.3393444,11.21483 L11.513886,11.21483 L11.5115838,19.995184 C11.5115838,20.2638993 11.2914685,20.4812804 11.0314171,20.4878282" id="Fill-3"></path>
                    <path d="M20.4993542,11.21483 L16.2198329,11.21483 C15.7130421,11.21483 15.3007079,11.6362308 15.3007079,12.1600417 L15.3007079,21.7546615 L18.1312815,21.7546615 L18.1312815,12.9536137 C18.1330731,12.6841092 18.3462815,12.4701408 18.6096565,12.4701408 C18.8738019,12.4701408 19.0857292,12.678875 19.0918746,12.9460182 L19.0918746,21.7546615 L21.9104171,21.7546615 L21.9104171,12.9460182 C21.9142602,12.678875 22.1259277,12.4701408 22.3898223,12.4701408 C22.6513967,12.4701408 22.8674269,12.6841092 22.8689588,12.9536137 L22.8689588,21.7546615 L25.7000519,21.7546615 L25.7000519,12.1600417 C25.7000519,11.6362308 25.2869473,11.21483 24.7804163,11.21483 L20.4993542,11.21483" id="Fill-4"></path>
                    <path d="M5.83840115,19.1060182 L2.98171765,19.1060182 L2.98171765,21.7546615 L0.154979077,21.7546615 L0.154979077,11.21483 L5.85657402,11.21483 C6.36694281,11.21483 6.76546144,11.639375 6.76546144,12.1639742 L6.76546144,18.1560894 C6.76546144,18.6827804 6.35133023,19.1060182 5.83840115,19.1060182 Z M3.94077083,12.9719471 C3.94281871,12.678875 3.70938963,12.4701408 3.46213962,12.4701408 L2.98171765,12.4701408 L2.98171765,17.8014696 L3.46213962,17.8014696 C3.71118129,17.8014696 3.94281871,17.5984948 3.94077083,17.3062083 L3.94077083,12.9719471 Z" id="Fill-5"></path>
                    <path d="M36.672989,20.5051128 C36.672989,21.221423 36.1119375,21.8031132 35.4175413,21.8031132 C34.716489,21.8031132 34.1528754,21.2253518 34.1528754,20.5051128 C34.1528754,19.7992813 34.716489,19.2089471 35.3970625,19.2089471 C36.1119375,19.2089471 36.672989,19.7814696 36.672989,20.5051128 Z M35.3998754,19.3977795 C34.8316663,19.3977795 34.3545723,19.8998507 34.3545723,20.5090417 C34.3545723,21.1198041 34.8316663,21.6176846 35.4175413,21.6176846 C35.9988027,21.6176846 36.4702708,21.1198041 36.4702708,20.5090417 C36.4702708,19.8988038 35.9988027,19.3977795 35.4175413,19.3977795 L35.3998754,19.3977795 Z" id="Fill-6"></path>
                    <path d="M36.0108337,21.2562565 L35.673239,21.2562565 L35.239136,20.6651372 L35.239136,21.2562565 L34.9639898,21.2562565 L34.9639898,19.7620885 L35.2532185,19.7620885 C35.6471254,19.7620885 35.8564996,19.9139939 35.8564996,20.2054939 C35.8564996,20.3998272 35.7326148,20.5716381 35.5606148,20.6240182 L35.5403958,20.6313507 L36.0108337,21.2562565 Z M35.2870004,20.4226128 C35.4830625,20.4226128 35.587239,20.3518984 35.587239,20.2091606 C35.587239,20.0821372 35.4871565,20.0169237 35.2954481,20.0169237 L35.239136,20.0169237 L35.239136,20.4226128 L35.2870004,20.4226128 Z" id="Fill-7"></path>
                    <path d="M30.4456662,21.7546615 L30.4456662,19.1086372 L29.4845625,19.1086372 L29.4845625,21.7546615 L26.6596148,21.7546615 L26.6596148,12.1600417 C26.6596148,11.6362308 27.0722088,11.21483 27.5787398,11.21483 L32.3517398,11.21483 C32.8595519,11.21483 33.2716352,11.6362308 33.2716352,12.1600417 L33.2716352,21.7546615 L30.4456662,21.7546615 Z M30.4456662,17.8033038 L30.4456662,12.9499462 C30.4387504,12.6814967 30.2278444,12.475375 29.9637079,12.475375 C29.702886,12.475375 29.4871246,12.689875 29.4845625,12.9575417 L29.4845625,17.8033038 L30.4456662,17.8033038 Z" id="Fill-8"></path>
                </g>
                <rect id="Rectangle" stroke="#B0B0B0" fill-rule="nonzero" x="0.5" y="0.5" width="119" height="47" rx="4"></rect>
            </g>
        </g>
    </g>
</svg>